<mxfile host="65bd71144e">
    <diagram id="lAZnloyvhYRKS22VB88z" name="Página-2">
        <mxGraphModel dx="1409" dy="475" grid="1" gridSize="10" guides="1" tooltips="1" connect="1" arrows="1" fold="1" page="1" pageScale="1" pageWidth="827" pageHeight="1169" math="0" shadow="0">
            <root>
                <mxCell id="0"/>
                <mxCell id="1" parent="0"/>
                <mxCell id="BtsOsqSpoS8FUeU52O5m-1" value="Usuario" style="rounded=0;whiteSpace=wrap;html=1;" parent="1" vertex="1">
                    <mxGeometry x="200" y="70" width="110" height="50" as="geometry"/>
                </mxCell>
                <mxCell id="BtsOsqSpoS8FUeU52O5m-2" value="id_usuario" style="ellipse;whiteSpace=wrap;html=1;" parent="1" vertex="1">
                    <mxGeometry x="100" y="60" width="70" height="30" as="geometry"/>
                </mxCell>
                <mxCell id="BtsOsqSpoS8FUeU52O5m-3" value="" style="endArrow=none;html=1;rounded=0;entryX=0.935;entryY=0.74;entryDx=0;entryDy=0;exitX=0.07;exitY=0.74;exitDx=0;exitDy=0;exitPerimeter=0;entryPerimeter=0;" parent="1" source="BtsOsqSpoS8FUeU52O5m-2" target="BtsOsqSpoS8FUeU52O5m-2" edge="1">
                    <mxGeometry width="50" height="50" relative="1" as="geometry">
                        <mxPoint x="350" y="250.95999999999998" as="sourcePoint"/>
                        <mxPoint x="470" y="250" as="targetPoint"/>
                    </mxGeometry>
                </mxCell>
                <mxCell id="BtsOsqSpoS8FUeU52O5m-4" value="" style="endArrow=none;html=1;rounded=0;exitX=1;exitY=0.5;exitDx=0;exitDy=0;entryX=-0.008;entryY=0.373;entryDx=0;entryDy=0;entryPerimeter=0;" parent="1" source="BtsOsqSpoS8FUeU52O5m-2" target="BtsOsqSpoS8FUeU52O5m-1" edge="1">
                    <mxGeometry width="50" height="50" relative="1" as="geometry">
                        <mxPoint x="310" y="220" as="sourcePoint"/>
                        <mxPoint x="360" y="170" as="targetPoint"/>
                    </mxGeometry>
                </mxCell>
                <mxCell id="BtsOsqSpoS8FUeU52O5m-5" value="nombre" style="ellipse;whiteSpace=wrap;html=1;" parent="1" vertex="1">
                    <mxGeometry x="90" y="100" width="60" height="30" as="geometry"/>
                </mxCell>
                <mxCell id="BtsOsqSpoS8FUeU52O5m-6" value="" style="endArrow=none;html=1;rounded=0;exitX=1;exitY=0.5;exitDx=0;exitDy=0;entryX=0;entryY=0.5;entryDx=0;entryDy=0;" parent="1" source="BtsOsqSpoS8FUeU52O5m-5" target="BtsOsqSpoS8FUeU52O5m-1" edge="1">
                    <mxGeometry width="50" height="50" relative="1" as="geometry">
                        <mxPoint x="310" y="220" as="sourcePoint"/>
                        <mxPoint x="360" y="170" as="targetPoint"/>
                    </mxGeometry>
                </mxCell>
                <mxCell id="BtsOsqSpoS8FUeU52O5m-7" value="correo" style="ellipse;whiteSpace=wrap;html=1;" parent="1" vertex="1">
                    <mxGeometry x="190" y="20" width="60" height="30" as="geometry"/>
                </mxCell>
                <mxCell id="BtsOsqSpoS8FUeU52O5m-8" value="" style="endArrow=none;html=1;rounded=0;exitX=0.5;exitY=1;exitDx=0;exitDy=0;entryX=0.182;entryY=-0.027;entryDx=0;entryDy=0;entryPerimeter=0;" parent="1" source="BtsOsqSpoS8FUeU52O5m-7" target="BtsOsqSpoS8FUeU52O5m-1" edge="1">
                    <mxGeometry width="50" height="50" relative="1" as="geometry">
                        <mxPoint x="310" y="220" as="sourcePoint"/>
                        <mxPoint x="360" y="170" as="targetPoint"/>
                    </mxGeometry>
                </mxCell>
                <mxCell id="BtsOsqSpoS8FUeU52O5m-9" value="contraseña" style="ellipse;whiteSpace=wrap;html=1;" parent="1" vertex="1">
                    <mxGeometry x="270" y="10" width="70" height="30" as="geometry"/>
                </mxCell>
                <mxCell id="BtsOsqSpoS8FUeU52O5m-11" value="" style="endArrow=none;html=1;rounded=0;exitX=0.246;exitY=0.98;exitDx=0;exitDy=0;entryX=0.568;entryY=0.023;entryDx=0;entryDy=0;exitPerimeter=0;entryPerimeter=0;" parent="1" source="BtsOsqSpoS8FUeU52O5m-9" target="BtsOsqSpoS8FUeU52O5m-1" edge="1">
                    <mxGeometry width="50" height="50" relative="1" as="geometry">
                        <mxPoint x="310" y="220" as="sourcePoint"/>
                        <mxPoint x="360" y="170" as="targetPoint"/>
                    </mxGeometry>
                </mxCell>
                <mxCell id="BtsOsqSpoS8FUeU52O5m-12" value="Instructor" style="rounded=0;whiteSpace=wrap;html=1;" parent="1" vertex="1">
                    <mxGeometry x="100" y="240" width="90" height="40" as="geometry"/>
                </mxCell>
                <mxCell id="BtsOsqSpoS8FUeU52O5m-16" value="Paciente" style="rounded=0;whiteSpace=wrap;html=1;" parent="1" vertex="1">
                    <mxGeometry x="360" y="233.66" width="100" height="40" as="geometry"/>
                </mxCell>
                <mxCell id="BtsOsqSpoS8FUeU52O5m-17" value="" style="verticalLabelPosition=bottom;verticalAlign=top;html=1;shape=mxgraph.basic.arc;startAngle=0.5234861879921596;endAngle=0.9550773360672707;rotation=-90;" parent="1" vertex="1">
                    <mxGeometry x="237.5" y="100" width="35" height="157.5" as="geometry"/>
                </mxCell>
                <mxCell id="BtsOsqSpoS8FUeU52O5m-19" value="" style="ellipse;whiteSpace=wrap;html=1;aspect=fixed;" parent="1" vertex="1">
                    <mxGeometry x="250" y="140" width="10" height="10" as="geometry"/>
                </mxCell>
                <mxCell id="BtsOsqSpoS8FUeU52O5m-20" value="" style="endArrow=none;html=1;rounded=0;entryX=0.5;entryY=1;entryDx=0;entryDy=0;exitX=0.5;exitY=0;exitDx=0;exitDy=0;" parent="1" source="BtsOsqSpoS8FUeU52O5m-19" target="BtsOsqSpoS8FUeU52O5m-1" edge="1">
                    <mxGeometry width="50" height="50" relative="1" as="geometry">
                        <mxPoint x="250" y="200" as="sourcePoint"/>
                        <mxPoint x="300" y="150" as="targetPoint"/>
                    </mxGeometry>
                </mxCell>
                <mxCell id="BtsOsqSpoS8FUeU52O5m-21" value="" style="triangle;whiteSpace=wrap;html=1;rotation=90;" parent="1" vertex="1">
                    <mxGeometry x="245" y="150" width="20" height="40" as="geometry"/>
                </mxCell>
                <mxCell id="BtsOsqSpoS8FUeU52O5m-22" value="" style="endArrow=none;html=1;rounded=0;exitX=0;exitY=0.5;exitDx=0;exitDy=0;entryX=0.5;entryY=1;entryDx=0;entryDy=0;" parent="1" source="BtsOsqSpoS8FUeU52O5m-21" target="BtsOsqSpoS8FUeU52O5m-19" edge="1">
                    <mxGeometry width="50" height="50" relative="1" as="geometry">
                        <mxPoint x="270" y="180" as="sourcePoint"/>
                        <mxPoint x="320" y="130" as="targetPoint"/>
                    </mxGeometry>
                </mxCell>
                <mxCell id="BtsOsqSpoS8FUeU52O5m-23" value="" style="endArrow=none;html=1;rounded=0;entryX=0.369;entryY=0.842;entryDx=0;entryDy=0;entryPerimeter=0;exitX=0.5;exitY=0;exitDx=0;exitDy=0;" parent="1" source="BtsOsqSpoS8FUeU52O5m-12" target="BtsOsqSpoS8FUeU52O5m-21" edge="1">
                    <mxGeometry width="50" height="50" relative="1" as="geometry">
                        <mxPoint x="140" y="230" as="sourcePoint"/>
                        <mxPoint x="190" y="180" as="targetPoint"/>
                    </mxGeometry>
                </mxCell>
                <mxCell id="BtsOsqSpoS8FUeU52O5m-24" value="" style="endArrow=none;html=1;rounded=0;entryX=0.5;entryY=0;entryDx=0;entryDy=0;exitX=0.35;exitY=0.083;exitDx=0;exitDy=0;exitPerimeter=0;" parent="1" source="BtsOsqSpoS8FUeU52O5m-21" target="BtsOsqSpoS8FUeU52O5m-16" edge="1">
                    <mxGeometry width="50" height="50" relative="1" as="geometry">
                        <mxPoint x="309.68000000000006" y="170.00000000000014" as="sourcePoint"/>
                        <mxPoint x="330" y="153.66" as="targetPoint"/>
                    </mxGeometry>
                </mxCell>
                <mxCell id="c_n3ffPZWZoebz6HedA8-1" value="Gestiona" style="rhombus;whiteSpace=wrap;html=1;" parent="1" vertex="1">
                    <mxGeometry x="237.5" y="233.66" width="70" height="55" as="geometry"/>
                </mxCell>
                <mxCell id="c_n3ffPZWZoebz6HedA8-5" value="" style="endArrow=none;html=1;rounded=0;exitX=1;exitY=0.5;exitDx=0;exitDy=0;entryX=0;entryY=0.5;entryDx=0;entryDy=0;" parent="1" source="BtsOsqSpoS8FUeU52O5m-12" target="c_n3ffPZWZoebz6HedA8-1" edge="1">
                    <mxGeometry width="50" height="50" relative="1" as="geometry">
                        <mxPoint x="370" y="270" as="sourcePoint"/>
                        <mxPoint x="420" y="220" as="targetPoint"/>
                        <Array as="points"/>
                    </mxGeometry>
                </mxCell>
                <mxCell id="c_n3ffPZWZoebz6HedA8-6" value="" style="endArrow=none;html=1;rounded=0;exitX=1;exitY=0.5;exitDx=0;exitDy=0;entryX=0;entryY=0.659;entryDx=0;entryDy=0;entryPerimeter=0;" parent="1" source="c_n3ffPZWZoebz6HedA8-1" target="BtsOsqSpoS8FUeU52O5m-16" edge="1">
                    <mxGeometry width="50" height="50" relative="1" as="geometry">
                        <mxPoint x="320" y="341.16" as="sourcePoint"/>
                        <mxPoint x="370" y="273.66" as="targetPoint"/>
                        <Array as="points"/>
                    </mxGeometry>
                </mxCell>
                <mxCell id="c_n3ffPZWZoebz6HedA8-7" value="&lt;b&gt;1 : N&lt;/b&gt;" style="text;html=1;align=center;verticalAlign=middle;resizable=0;points=[];autosize=1;strokeColor=none;fillColor=none;" parent="1" vertex="1">
                    <mxGeometry x="250" y="210" width="50" height="30" as="geometry"/>
                </mxCell>
                <mxCell id="rjI9Mzc1XHFWcVS8jRBN-1" value="fecha_nac" style="ellipse;whiteSpace=wrap;html=1;" parent="1" vertex="1">
                    <mxGeometry x="375" y="30" width="70" height="30" as="geometry"/>
                </mxCell>
                <mxCell id="rjI9Mzc1XHFWcVS8jRBN-2" value="" style="endArrow=none;html=1;rounded=0;entryX=0.017;entryY=0.344;entryDx=0;entryDy=0;entryPerimeter=0;exitX=1.036;exitY=0.14;exitDx=0;exitDy=0;exitPerimeter=0;" parent="1" source="BtsOsqSpoS8FUeU52O5m-1" target="rjI9Mzc1XHFWcVS8jRBN-1" edge="1">
                    <mxGeometry width="50" height="50" relative="1" as="geometry">
                        <mxPoint x="400" y="203.66" as="sourcePoint"/>
                        <mxPoint x="450" y="153.66" as="targetPoint"/>
                    </mxGeometry>
                </mxCell>
                <mxCell id="NIFG1Vfks2P-AFJQT_E5-1" value="género" style="ellipse;whiteSpace=wrap;html=1;" parent="1" vertex="1">
                    <mxGeometry x="430" y="140" width="70" height="20" as="geometry"/>
                </mxCell>
                <mxCell id="NIFG1Vfks2P-AFJQT_E5-2" value="" style="endArrow=none;html=1;rounded=0;entryX=0;entryY=0.5;entryDx=0;entryDy=0;exitX=1;exitY=1;exitDx=0;exitDy=0;" parent="1" source="BtsOsqSpoS8FUeU52O5m-1" target="NIFG1Vfks2P-AFJQT_E5-1" edge="1">
                    <mxGeometry width="50" height="50" relative="1" as="geometry">
                        <mxPoint x="400" y="203.66" as="sourcePoint"/>
                        <mxPoint x="450" y="153.66" as="targetPoint"/>
                    </mxGeometry>
                </mxCell>
                <mxCell id="NIFG1Vfks2P-AFJQT_E5-3" value="Crea" style="rhombus;whiteSpace=wrap;html=1;" parent="1" vertex="1">
                    <mxGeometry x="-20" y="235" width="60" height="50" as="geometry"/>
                </mxCell>
                <mxCell id="NIFG1Vfks2P-AFJQT_E5-6" value="&lt;b&gt;N : 1&lt;/b&gt;" style="text;html=1;align=center;verticalAlign=middle;resizable=0;points=[];autosize=1;strokeColor=none;fillColor=none;" parent="1" vertex="1">
                    <mxGeometry x="-15" y="205" width="50" height="30" as="geometry"/>
                </mxCell>
                <mxCell id="NIFG1Vfks2P-AFJQT_E5-8" value="SerieTerapeutica" style="rounded=0;whiteSpace=wrap;html=1;" parent="1" vertex="1">
                    <mxGeometry x="-200" y="223.66" width="120" height="60" as="geometry"/>
                </mxCell>
                <mxCell id="NIFG1Vfks2P-AFJQT_E5-9" value="id_serie" style="ellipse;whiteSpace=wrap;html=1;" parent="1" vertex="1">
                    <mxGeometry x="-260" y="173.66" width="50" height="30" as="geometry"/>
                </mxCell>
                <mxCell id="NIFG1Vfks2P-AFJQT_E5-10" value="" style="endArrow=none;html=1;rounded=0;entryX=0.916;entryY=0.737;entryDx=0;entryDy=0;entryPerimeter=0;exitX=0.076;exitY=0.777;exitDx=0;exitDy=0;exitPerimeter=0;" parent="1" source="NIFG1Vfks2P-AFJQT_E5-9" target="NIFG1Vfks2P-AFJQT_E5-9" edge="1">
                    <mxGeometry width="50" height="50" relative="1" as="geometry">
                        <mxPoint x="-258.6" y="180.44000000000005" as="sourcePoint"/>
                        <mxPoint x="-210.00000000000009" y="180.44000000000005" as="targetPoint"/>
                    </mxGeometry>
                </mxCell>
                <mxCell id="NIFG1Vfks2P-AFJQT_E5-11" value="" style="endArrow=none;html=1;rounded=0;entryX=0.697;entryY=0.905;entryDx=0;entryDy=0;entryPerimeter=0;exitX=0.17;exitY=0.006;exitDx=0;exitDy=0;exitPerimeter=0;" parent="1" source="NIFG1Vfks2P-AFJQT_E5-8" target="NIFG1Vfks2P-AFJQT_E5-9" edge="1">
                    <mxGeometry width="50" height="50" relative="1" as="geometry">
                        <mxPoint x="-200" y="230" as="sourcePoint"/>
                        <mxPoint x="-150" y="180" as="targetPoint"/>
                    </mxGeometry>
                </mxCell>
                <mxCell id="NIFG1Vfks2P-AFJQT_E5-12" value="nombre" style="ellipse;whiteSpace=wrap;html=1;" parent="1" vertex="1">
                    <mxGeometry x="-200" y="170" width="70" height="30" as="geometry"/>
                </mxCell>
                <mxCell id="NIFG1Vfks2P-AFJQT_E5-13" value="" style="endArrow=none;html=1;rounded=0;entryX=0.5;entryY=1;entryDx=0;entryDy=0;exitX=0.433;exitY=-0.05;exitDx=0;exitDy=0;exitPerimeter=0;" parent="1" source="NIFG1Vfks2P-AFJQT_E5-8" target="NIFG1Vfks2P-AFJQT_E5-12" edge="1">
                    <mxGeometry width="50" height="50" relative="1" as="geometry">
                        <mxPoint x="120" y="270" as="sourcePoint"/>
                        <mxPoint x="170" y="220" as="targetPoint"/>
                    </mxGeometry>
                </mxCell>
                <mxCell id="NIFG1Vfks2P-AFJQT_E5-14" value="tipo_terapia" style="ellipse;whiteSpace=wrap;html=1;" parent="1" vertex="1">
                    <mxGeometry x="-120" y="173.66" width="80" height="40" as="geometry"/>
                </mxCell>
                <mxCell id="NIFG1Vfks2P-AFJQT_E5-15" value="" style="endArrow=none;html=1;rounded=0;entryX=0.363;entryY=1;entryDx=0;entryDy=0;entryPerimeter=0;exitX=0.679;exitY=-0.033;exitDx=0;exitDy=0;exitPerimeter=0;" parent="1" source="NIFG1Vfks2P-AFJQT_E5-8" target="NIFG1Vfks2P-AFJQT_E5-14" edge="1">
                    <mxGeometry width="50" height="50" relative="1" as="geometry">
                        <mxPoint x="120" y="300" as="sourcePoint"/>
                        <mxPoint x="170" y="250" as="targetPoint"/>
                    </mxGeometry>
                </mxCell>
                <mxCell id="NIFG1Vfks2P-AFJQT_E5-16" value="sesiones_recomendadas" style="ellipse;whiteSpace=wrap;html=1;" parent="1" vertex="1">
                    <mxGeometry x="-360" y="213.66" width="140" height="50" as="geometry"/>
                </mxCell>
                <mxCell id="NIFG1Vfks2P-AFJQT_E5-17" value="" style="endArrow=none;html=1;rounded=0;entryX=0;entryY=0.5;entryDx=0;entryDy=0;exitX=0.95;exitY=0.76;exitDx=0;exitDy=0;exitPerimeter=0;" parent="1" source="NIFG1Vfks2P-AFJQT_E5-16" target="NIFG1Vfks2P-AFJQT_E5-8" edge="1">
                    <mxGeometry width="50" height="50" relative="1" as="geometry">
                        <mxPoint x="120" y="300" as="sourcePoint"/>
                        <mxPoint x="170" y="250" as="targetPoint"/>
                    </mxGeometry>
                </mxCell>
                <mxCell id="NIFG1Vfks2P-AFJQT_E5-18" value="Postura" style="rounded=0;whiteSpace=wrap;html=1;" parent="1" vertex="1">
                    <mxGeometry x="-480" y="435" width="120" height="60" as="geometry"/>
                </mxCell>
                <mxCell id="NIFG1Vfks2P-AFJQT_E5-19" value="id_postura" style="ellipse;whiteSpace=wrap;html=1;" parent="1" vertex="1">
                    <mxGeometry x="-315" y="400" width="70" height="30" as="geometry"/>
                </mxCell>
                <mxCell id="NIFG1Vfks2P-AFJQT_E5-20" value="" style="endArrow=none;html=1;rounded=0;entryX=0;entryY=0.5;entryDx=0;entryDy=0;exitX=1;exitY=0.25;exitDx=0;exitDy=0;" parent="1" source="NIFG1Vfks2P-AFJQT_E5-18" edge="1">
                    <mxGeometry width="50" height="50" relative="1" as="geometry">
                        <mxPoint x="-660" y="325" as="sourcePoint"/>
                        <mxPoint x="-305.0000000000093" y="430" as="targetPoint"/>
                    </mxGeometry>
                </mxCell>
                <mxCell id="NIFG1Vfks2P-AFJQT_E5-21" value="nombre_es" style="ellipse;whiteSpace=wrap;html=1;" parent="1" vertex="1">
                    <mxGeometry x="-305" y="450" width="70" height="30" as="geometry"/>
                </mxCell>
                <mxCell id="NIFG1Vfks2P-AFJQT_E5-22" value="" style="endArrow=none;html=1;rounded=0;exitX=0.067;exitY=0.725;exitDx=0;exitDy=0;exitPerimeter=0;entryX=0.941;entryY=0.668;entryDx=0;entryDy=0;entryPerimeter=0;" parent="1" source="NIFG1Vfks2P-AFJQT_E5-19" target="NIFG1Vfks2P-AFJQT_E5-19" edge="1">
                    <mxGeometry width="50" height="50" relative="1" as="geometry">
                        <mxPoint x="-670" y="310" as="sourcePoint"/>
                        <mxPoint x="-260" y="420" as="targetPoint"/>
                    </mxGeometry>
                </mxCell>
                <mxCell id="NIFG1Vfks2P-AFJQT_E5-23" value="" style="endArrow=none;html=1;rounded=0;entryX=0;entryY=0.5;entryDx=0;entryDy=0;exitX=1;exitY=0.5;exitDx=0;exitDy=0;" parent="1" source="NIFG1Vfks2P-AFJQT_E5-18" target="NIFG1Vfks2P-AFJQT_E5-21" edge="1">
                    <mxGeometry width="50" height="50" relative="1" as="geometry">
                        <mxPoint x="-357" y="465" as="sourcePoint"/>
                        <mxPoint x="-430" y="355" as="targetPoint"/>
                    </mxGeometry>
                </mxCell>
                <mxCell id="NIFG1Vfks2P-AFJQT_E5-24" value="nombre_sans" style="ellipse;whiteSpace=wrap;html=1;" parent="1" vertex="1">
                    <mxGeometry x="-310" y="485" width="80" height="30" as="geometry"/>
                </mxCell>
                <mxCell id="NIFG1Vfks2P-AFJQT_E5-25" value="" style="endArrow=none;html=1;rounded=0;entryX=1;entryY=0.75;entryDx=0;entryDy=0;exitX=0;exitY=0.5;exitDx=0;exitDy=0;" parent="1" source="NIFG1Vfks2P-AFJQT_E5-24" target="NIFG1Vfks2P-AFJQT_E5-18" edge="1">
                    <mxGeometry width="50" height="50" relative="1" as="geometry">
                        <mxPoint x="-480" y="405" as="sourcePoint"/>
                        <mxPoint x="-430" y="355" as="targetPoint"/>
                    </mxGeometry>
                </mxCell>
                <mxCell id="NIFG1Vfks2P-AFJQT_E5-26" value="fotografía" style="ellipse;whiteSpace=wrap;html=1;" parent="1" vertex="1">
                    <mxGeometry x="-530" y="515" width="80" height="30" as="geometry"/>
                </mxCell>
                <mxCell id="NIFG1Vfks2P-AFJQT_E5-27" value="" style="endArrow=none;html=1;rounded=0;entryX=0.5;entryY=0;entryDx=0;entryDy=0;exitX=0.115;exitY=1.03;exitDx=0;exitDy=0;exitPerimeter=0;" parent="1" source="NIFG1Vfks2P-AFJQT_E5-18" target="NIFG1Vfks2P-AFJQT_E5-26" edge="1">
                    <mxGeometry width="50" height="50" relative="1" as="geometry">
                        <mxPoint x="-410" y="475" as="sourcePoint"/>
                        <mxPoint x="-360" y="425" as="targetPoint"/>
                    </mxGeometry>
                </mxCell>
                <mxCell id="NIFG1Vfks2P-AFJQT_E5-28" value="video" style="ellipse;whiteSpace=wrap;html=1;" parent="1" vertex="1">
                    <mxGeometry x="-440" y="515" width="70" height="30" as="geometry"/>
                </mxCell>
                <mxCell id="NIFG1Vfks2P-AFJQT_E5-30" value="" style="endArrow=none;html=1;rounded=0;exitX=0.454;exitY=-0.047;exitDx=0;exitDy=0;exitPerimeter=0;entryX=0.412;entryY=1.01;entryDx=0;entryDy=0;entryPerimeter=0;" parent="1" source="NIFG1Vfks2P-AFJQT_E5-28" target="NIFG1Vfks2P-AFJQT_E5-18" edge="1">
                    <mxGeometry width="50" height="50" relative="1" as="geometry">
                        <mxPoint x="-440" y="495" as="sourcePoint"/>
                        <mxPoint x="-390" y="445" as="targetPoint"/>
                    </mxGeometry>
                </mxCell>
                <mxCell id="NIFG1Vfks2P-AFJQT_E5-31" value="instrucciones" style="ellipse;whiteSpace=wrap;html=1;" parent="1" vertex="1">
                    <mxGeometry x="-350" y="525" width="80" height="40" as="geometry"/>
                </mxCell>
                <mxCell id="NIFG1Vfks2P-AFJQT_E5-32" value="" style="endArrow=none;html=1;rounded=0;entryX=0.25;entryY=0;entryDx=0;entryDy=0;entryPerimeter=0;exitX=0.75;exitY=1;exitDx=0;exitDy=0;" parent="1" source="NIFG1Vfks2P-AFJQT_E5-18" target="NIFG1Vfks2P-AFJQT_E5-31" edge="1">
                    <mxGeometry width="50" height="50" relative="1" as="geometry">
                        <mxPoint x="-420" y="505" as="sourcePoint"/>
                        <mxPoint x="-370" y="455" as="targetPoint"/>
                    </mxGeometry>
                </mxCell>
                <mxCell id="NIFG1Vfks2P-AFJQT_E5-33" value="beneficios" style="ellipse;whiteSpace=wrap;html=1;" parent="1" vertex="1">
                    <mxGeometry x="-390" y="370" width="60" height="40" as="geometry"/>
                </mxCell>
                <mxCell id="NIFG1Vfks2P-AFJQT_E5-34" value="" style="endArrow=none;html=1;rounded=0;entryX=0.426;entryY=0.963;entryDx=0;entryDy=0;entryPerimeter=0;exitX=0.868;exitY=0.003;exitDx=0;exitDy=0;exitPerimeter=0;" parent="1" source="NIFG1Vfks2P-AFJQT_E5-18" target="NIFG1Vfks2P-AFJQT_E5-33" edge="1">
                    <mxGeometry width="50" height="50" relative="1" as="geometry">
                        <mxPoint x="-430" y="490" as="sourcePoint"/>
                        <mxPoint x="-380" y="440" as="targetPoint"/>
                    </mxGeometry>
                </mxCell>
                <mxCell id="NIFG1Vfks2P-AFJQT_E5-35" value="Sesión" style="rounded=0;whiteSpace=wrap;html=1;" parent="1" vertex="1">
                    <mxGeometry x="60" y="430" width="120" height="60" as="geometry"/>
                </mxCell>
                <mxCell id="NIFG1Vfks2P-AFJQT_E5-36" value="id_sesion" style="ellipse;whiteSpace=wrap;html=1;" parent="1" vertex="1">
                    <mxGeometry x="170" y="565" width="70" height="40" as="geometry"/>
                </mxCell>
                <mxCell id="NIFG1Vfks2P-AFJQT_E5-37" value="" style="endArrow=none;html=1;rounded=0;entryX=0.963;entryY=0.732;entryDx=0;entryDy=0;entryPerimeter=0;exitX=0.114;exitY=0.718;exitDx=0;exitDy=0;exitPerimeter=0;" parent="1" source="NIFG1Vfks2P-AFJQT_E5-36" target="NIFG1Vfks2P-AFJQT_E5-36" edge="1">
                    <mxGeometry width="50" height="50" relative="1" as="geometry">
                        <mxPoint x="-135.5" y="375" as="sourcePoint"/>
                        <mxPoint x="-85.5" y="325" as="targetPoint"/>
                    </mxGeometry>
                </mxCell>
                <mxCell id="NIFG1Vfks2P-AFJQT_E5-38" value="" style="endArrow=none;html=1;rounded=0;entryX=0.286;entryY=0.071;entryDx=0;entryDy=0;entryPerimeter=0;exitX=0.896;exitY=1.019;exitDx=0;exitDy=0;exitPerimeter=0;" parent="1" source="NIFG1Vfks2P-AFJQT_E5-35" target="NIFG1Vfks2P-AFJQT_E5-36" edge="1">
                    <mxGeometry width="50" height="50" relative="1" as="geometry">
                        <mxPoint x="44.5" y="445" as="sourcePoint"/>
                        <mxPoint x="94.5" y="395" as="targetPoint"/>
                    </mxGeometry>
                </mxCell>
                <mxCell id="NIFG1Vfks2P-AFJQT_E5-40" value="fecha" style="ellipse;whiteSpace=wrap;html=1;" parent="1" vertex="1">
                    <mxGeometry x="115" y="515" width="50" height="30" as="geometry"/>
                </mxCell>
                <mxCell id="NIFG1Vfks2P-AFJQT_E5-41" value="" style="endArrow=none;html=1;rounded=0;entryX=0.5;entryY=0;entryDx=0;entryDy=0;exitX=0.653;exitY=0.978;exitDx=0;exitDy=0;exitPerimeter=0;" parent="1" source="NIFG1Vfks2P-AFJQT_E5-35" target="NIFG1Vfks2P-AFJQT_E5-40" edge="1">
                    <mxGeometry width="50" height="50" relative="1" as="geometry">
                        <mxPoint x="-165.5" y="365" as="sourcePoint"/>
                        <mxPoint x="-115.5" y="315" as="targetPoint"/>
                    </mxGeometry>
                </mxCell>
                <mxCell id="NIFG1Vfks2P-AFJQT_E5-42" value="hora_inicio" style="ellipse;whiteSpace=wrap;html=1;" parent="1" vertex="1">
                    <mxGeometry x="95" y="580" width="70" height="40" as="geometry"/>
                </mxCell>
                <mxCell id="NIFG1Vfks2P-AFJQT_E5-43" value="" style="endArrow=none;html=1;rounded=0;entryX=0.405;entryY=-0.054;entryDx=0;entryDy=0;entryPerimeter=0;exitX=0.392;exitY=1.017;exitDx=0;exitDy=0;exitPerimeter=0;" parent="1" source="NIFG1Vfks2P-AFJQT_E5-35" target="NIFG1Vfks2P-AFJQT_E5-42" edge="1">
                    <mxGeometry width="50" height="50" relative="1" as="geometry">
                        <mxPoint x="-165.5" y="365" as="sourcePoint"/>
                        <mxPoint x="-115.5" y="315" as="targetPoint"/>
                    </mxGeometry>
                </mxCell>
                <mxCell id="NIFG1Vfks2P-AFJQT_E5-44" value="hora_fin" style="ellipse;whiteSpace=wrap;html=1;" parent="1" vertex="1">
                    <mxGeometry x="51" y="535" width="64" height="40" as="geometry"/>
                </mxCell>
                <mxCell id="NIFG1Vfks2P-AFJQT_E5-45" value="" style="endArrow=none;html=1;rounded=0;entryX=0.25;entryY=1;entryDx=0;entryDy=0;exitX=0.5;exitY=0;exitDx=0;exitDy=0;" parent="1" source="NIFG1Vfks2P-AFJQT_E5-44" target="NIFG1Vfks2P-AFJQT_E5-35" edge="1">
                    <mxGeometry width="50" height="50" relative="1" as="geometry">
                        <mxPoint x="14.5" y="580" as="sourcePoint"/>
                        <mxPoint x="64.5" y="530" as="targetPoint"/>
                    </mxGeometry>
                </mxCell>
                <mxCell id="NIFG1Vfks2P-AFJQT_E5-50" value="PosturaEnSerie" style="rhombus;whiteSpace=wrap;html=1;" parent="1" vertex="1">
                    <mxGeometry x="-480" y="273.66" width="100" height="105" as="geometry"/>
                </mxCell>
                <mxCell id="NIFG1Vfks2P-AFJQT_E5-51" value="" style="endArrow=none;html=1;rounded=0;exitX=0.34;exitY=1;exitDx=0;exitDy=0;entryX=1;entryY=0.5;entryDx=0;entryDy=0;exitPerimeter=0;" parent="1" source="NIFG1Vfks2P-AFJQT_E5-8" target="NIFG1Vfks2P-AFJQT_E5-50" edge="1">
                    <mxGeometry width="50" height="50" relative="1" as="geometry">
                        <mxPoint x="80" y="370" as="sourcePoint"/>
                        <mxPoint x="-400" y="310" as="targetPoint"/>
                        <Array as="points">
                            <mxPoint x="-160" y="320"/>
                        </Array>
                    </mxGeometry>
                </mxCell>
                <mxCell id="NIFG1Vfks2P-AFJQT_E5-52" value="" style="endArrow=none;html=1;rounded=0;entryX=0.5;entryY=1;entryDx=0;entryDy=0;exitX=0.4;exitY=-0.033;exitDx=0;exitDy=0;exitPerimeter=0;" parent="1" source="NIFG1Vfks2P-AFJQT_E5-18" target="NIFG1Vfks2P-AFJQT_E5-50" edge="1">
                    <mxGeometry width="50" height="50" relative="1" as="geometry">
                        <mxPoint x="-80" y="380" as="sourcePoint"/>
                        <mxPoint x="-30" y="330" as="targetPoint"/>
                    </mxGeometry>
                </mxCell>
                <mxCell id="NIFG1Vfks2P-AFJQT_E5-53" value="Tiene asignado" style="rhombus;whiteSpace=wrap;html=1;" parent="1" vertex="1">
                    <mxGeometry x="95" y="320" width="80" height="80" as="geometry"/>
                </mxCell>
                <mxCell id="NIFG1Vfks2P-AFJQT_E5-55" value="" style="endArrow=none;html=1;rounded=0;exitX=0;exitY=0.5;exitDx=0;exitDy=0;" parent="1" source="NIFG1Vfks2P-AFJQT_E5-53" edge="1">
                    <mxGeometry width="50" height="50" relative="1" as="geometry">
                        <mxPoint x="-50" y="475" as="sourcePoint"/>
                        <mxPoint x="-110" y="284" as="targetPoint"/>
                        <Array as="points">
                            <mxPoint x="-110" y="360"/>
                        </Array>
                    </mxGeometry>
                </mxCell>
                <mxCell id="NIFG1Vfks2P-AFJQT_E5-56" value="" style="endArrow=none;html=1;rounded=0;exitX=1;exitY=0.5;exitDx=0;exitDy=0;" parent="1" source="NIFG1Vfks2P-AFJQT_E5-53" edge="1">
                    <mxGeometry width="50" height="50" relative="1" as="geometry">
                        <mxPoint x="150" y="413.66" as="sourcePoint"/>
                        <mxPoint x="370" y="275" as="targetPoint"/>
                        <Array as="points">
                            <mxPoint x="290" y="360"/>
                            <mxPoint x="360" y="360"/>
                            <mxPoint x="370" y="360"/>
                            <mxPoint x="370" y="340"/>
                        </Array>
                    </mxGeometry>
                </mxCell>
                <mxCell id="NIFG1Vfks2P-AFJQT_E5-57" value="&lt;b&gt;1 : 1&lt;/b&gt;" style="text;html=1;align=center;verticalAlign=middle;whiteSpace=wrap;rounded=0;" parent="1" vertex="1">
                    <mxGeometry x="105" y="290" width="60" height="30" as="geometry"/>
                </mxCell>
                <mxCell id="NIFG1Vfks2P-AFJQT_E5-61" value="" style="endArrow=none;html=1;rounded=0;entryX=0;entryY=0.5;entryDx=0;entryDy=0;exitX=1;exitY=0.5;exitDx=0;exitDy=0;" parent="1" source="NIFG1Vfks2P-AFJQT_E5-3" target="BtsOsqSpoS8FUeU52O5m-12" edge="1">
                    <mxGeometry width="50" height="50" relative="1" as="geometry">
                        <mxPoint x="-20" y="320" as="sourcePoint"/>
                        <mxPoint x="30" y="270" as="targetPoint"/>
                    </mxGeometry>
                </mxCell>
                <mxCell id="NIFG1Vfks2P-AFJQT_E5-62" value="" style="endArrow=none;html=1;rounded=0;entryX=0.979;entryY=0.597;entryDx=0;entryDy=0;exitX=0;exitY=0.5;exitDx=0;exitDy=0;entryPerimeter=0;" parent="1" source="NIFG1Vfks2P-AFJQT_E5-3" target="NIFG1Vfks2P-AFJQT_E5-8" edge="1">
                    <mxGeometry width="50" height="50" relative="1" as="geometry">
                        <mxPoint x="-20" y="320" as="sourcePoint"/>
                        <mxPoint x="30" y="270" as="targetPoint"/>
                    </mxGeometry>
                </mxCell>
                <mxCell id="NIFG1Vfks2P-AFJQT_E5-63" value="&lt;b&gt;N : 1&lt;/b&gt;" style="text;html=1;align=center;verticalAlign=middle;resizable=0;points=[];autosize=1;strokeColor=none;fillColor=none;" parent="1" vertex="1">
                    <mxGeometry x="-465" y="250" width="50" height="30" as="geometry"/>
                </mxCell>
                <mxCell id="NIFG1Vfks2P-AFJQT_E5-66" value="Registra" style="rhombus;whiteSpace=wrap;html=1;" parent="1" vertex="1">
                    <mxGeometry x="237.5" y="420" width="80" height="80" as="geometry"/>
                </mxCell>
                <mxCell id="NIFG1Vfks2P-AFJQT_E5-67" value="" style="endArrow=none;html=1;rounded=0;entryX=0.5;entryY=1;entryDx=0;entryDy=0;exitX=1;exitY=0.5;exitDx=0;exitDy=0;" parent="1" source="NIFG1Vfks2P-AFJQT_E5-66" target="BtsOsqSpoS8FUeU52O5m-16" edge="1">
                    <mxGeometry width="50" height="50" relative="1" as="geometry">
                        <mxPoint x="20" y="430" as="sourcePoint"/>
                        <mxPoint x="70" y="380" as="targetPoint"/>
                        <Array as="points">
                            <mxPoint x="410" y="460"/>
                        </Array>
                    </mxGeometry>
                </mxCell>
                <mxCell id="NIFG1Vfks2P-AFJQT_E5-68" value="" style="endArrow=none;html=1;rounded=0;entryX=0;entryY=0.5;entryDx=0;entryDy=0;exitX=1;exitY=0.5;exitDx=0;exitDy=0;" parent="1" source="NIFG1Vfks2P-AFJQT_E5-35" target="NIFG1Vfks2P-AFJQT_E5-66" edge="1">
                    <mxGeometry width="50" height="50" relative="1" as="geometry">
                        <mxPoint x="20" y="430" as="sourcePoint"/>
                        <mxPoint x="70" y="380" as="targetPoint"/>
                    </mxGeometry>
                </mxCell>
                <mxCell id="NIFG1Vfks2P-AFJQT_E5-69" value="&lt;b&gt;N : 1&lt;/b&gt;" style="text;html=1;align=center;verticalAlign=middle;whiteSpace=wrap;rounded=0;" parent="1" vertex="1">
                    <mxGeometry x="250" y="390" width="60" height="30" as="geometry"/>
                </mxCell>
                <mxCell id="NIFG1Vfks2P-AFJQT_E5-70" value="Es ejecutada en" style="rhombus;whiteSpace=wrap;html=1;" parent="1" vertex="1">
                    <mxGeometry x="-120" y="420" width="80" height="80" as="geometry"/>
                </mxCell>
                <mxCell id="NIFG1Vfks2P-AFJQT_E5-71" value="" style="endArrow=none;html=1;rounded=0;entryX=0;entryY=0.5;entryDx=0;entryDy=0;exitX=1;exitY=0.5;exitDx=0;exitDy=0;" parent="1" source="NIFG1Vfks2P-AFJQT_E5-70" target="NIFG1Vfks2P-AFJQT_E5-35" edge="1">
                    <mxGeometry width="50" height="50" relative="1" as="geometry">
                        <mxPoint x="-30" y="450" as="sourcePoint"/>
                        <mxPoint x="20" y="400" as="targetPoint"/>
                    </mxGeometry>
                </mxCell>
                <mxCell id="NIFG1Vfks2P-AFJQT_E5-72" value="" style="endArrow=none;html=1;rounded=0;entryX=0.5;entryY=1;entryDx=0;entryDy=0;exitX=0;exitY=0.5;exitDx=0;exitDy=0;" parent="1" source="NIFG1Vfks2P-AFJQT_E5-70" target="NIFG1Vfks2P-AFJQT_E5-8" edge="1">
                    <mxGeometry width="50" height="50" relative="1" as="geometry">
                        <mxPoint x="-30" y="450" as="sourcePoint"/>
                        <mxPoint x="20" y="400" as="targetPoint"/>
                        <Array as="points">
                            <mxPoint x="-140" y="460"/>
                        </Array>
                    </mxGeometry>
                </mxCell>
                <mxCell id="NIFG1Vfks2P-AFJQT_E5-73" value="&lt;b&gt;1 : N&lt;/b&gt;" style="text;html=1;align=center;verticalAlign=middle;resizable=0;points=[];autosize=1;strokeColor=none;fillColor=none;" parent="1" vertex="1">
                    <mxGeometry x="-105" y="400" width="50" height="30" as="geometry"/>
                </mxCell>
                <mxCell id="XY5U86VY-COkkylHjKYg-1" value="orden" style="ellipse;whiteSpace=wrap;html=1;" parent="1" vertex="1">
                    <mxGeometry x="-570" y="273.65999999999997" width="60" height="40" as="geometry"/>
                </mxCell>
                <mxCell id="XY5U86VY-COkkylHjKYg-2" value="" style="endArrow=none;html=1;rounded=0;entryX=1;entryY=0.5;entryDx=0;entryDy=0;exitX=0;exitY=0;exitDx=0;exitDy=0;" parent="1" source="NIFG1Vfks2P-AFJQT_E5-50" target="XY5U86VY-COkkylHjKYg-1" edge="1">
                    <mxGeometry width="50" height="50" relative="1" as="geometry">
                        <mxPoint x="-10" y="390" as="sourcePoint"/>
                        <mxPoint x="40" y="340" as="targetPoint"/>
                    </mxGeometry>
                </mxCell>
                <mxCell id="XY5U86VY-COkkylHjKYg-3" value="duración_min" style="ellipse;whiteSpace=wrap;html=1;" parent="1" vertex="1">
                    <mxGeometry x="-610" y="325" width="80" height="40" as="geometry"/>
                </mxCell>
                <mxCell id="XY5U86VY-COkkylHjKYg-4" value="" style="endArrow=none;html=1;rounded=0;entryX=1;entryY=0.5;entryDx=0;entryDy=0;exitX=0.121;exitY=0.564;exitDx=0;exitDy=0;exitPerimeter=0;" parent="1" source="NIFG1Vfks2P-AFJQT_E5-50" target="XY5U86VY-COkkylHjKYg-3" edge="1">
                    <mxGeometry width="50" height="50" relative="1" as="geometry">
                        <mxPoint x="-10" y="390" as="sourcePoint"/>
                        <mxPoint x="40" y="340" as="targetPoint"/>
                    </mxGeometry>
                </mxCell>
                <mxCell id="XY5U86VY-COkkylHjKYg-5" value="intensidad_inicio" style="ellipse;whiteSpace=wrap;html=1;" parent="1" vertex="1">
                    <mxGeometry x="-40" y="565" width="80" height="30" as="geometry"/>
                </mxCell>
                <mxCell id="XY5U86VY-COkkylHjKYg-6" value="" style="endArrow=none;html=1;rounded=0;entryX=0.074;entryY=1.031;entryDx=0;entryDy=0;exitX=1;exitY=0;exitDx=0;exitDy=0;entryPerimeter=0;" parent="1" source="XY5U86VY-COkkylHjKYg-5" target="NIFG1Vfks2P-AFJQT_E5-35" edge="1">
                    <mxGeometry width="50" height="50" relative="1" as="geometry">
                        <mxPoint x="-80" y="400" as="sourcePoint"/>
                        <mxPoint x="-30" y="350" as="targetPoint"/>
                    </mxGeometry>
                </mxCell>
                <mxCell id="BVsbsk-YlYa_dKoyV8Dp-1" value="" style="endArrow=none;html=1;rounded=0;entryX=0;entryY=0.5;entryDx=0;entryDy=0;" parent="1" target="BtsOsqSpoS8FUeU52O5m-5" edge="1">
                    <mxGeometry width="50" height="50" relative="1" as="geometry">
                        <mxPoint x="60" y="115" as="sourcePoint"/>
                        <mxPoint x="110" y="270" as="targetPoint"/>
                    </mxGeometry>
                </mxCell>
                <mxCell id="BVsbsk-YlYa_dKoyV8Dp-2" value="nombres" style="ellipse;whiteSpace=wrap;html=1;" parent="1" vertex="1">
                    <mxGeometry x="-20" y="77.5" width="65" height="35" as="geometry"/>
                </mxCell>
                <mxCell id="BVsbsk-YlYa_dKoyV8Dp-3" value="" style="endArrow=none;html=1;rounded=0;" parent="1" edge="1">
                    <mxGeometry width="50" height="50" relative="1" as="geometry">
                        <mxPoint x="60" y="90" as="sourcePoint"/>
                        <mxPoint x="60" y="140" as="targetPoint"/>
                    </mxGeometry>
                </mxCell>
                <mxCell id="BVsbsk-YlYa_dKoyV8Dp-4" value="" style="endArrow=none;html=1;rounded=0;exitX=0.991;exitY=0.394;exitDx=0;exitDy=0;exitPerimeter=0;" parent="1" source="BVsbsk-YlYa_dKoyV8Dp-2" edge="1">
                    <mxGeometry width="50" height="50" relative="1" as="geometry">
                        <mxPoint x="30" y="140" as="sourcePoint"/>
                        <mxPoint x="60" y="90" as="targetPoint"/>
                    </mxGeometry>
                </mxCell>
                <mxCell id="BVsbsk-YlYa_dKoyV8Dp-5" value="apellidos" style="ellipse;whiteSpace=wrap;html=1;" parent="1" vertex="1">
                    <mxGeometry x="-30" y="120" width="70" height="30" as="geometry"/>
                </mxCell>
                <mxCell id="BVsbsk-YlYa_dKoyV8Dp-6" value="" style="endArrow=none;html=1;rounded=0;" parent="1" edge="1">
                    <mxGeometry width="50" height="50" relative="1" as="geometry">
                        <mxPoint x="40" y="140" as="sourcePoint"/>
                        <mxPoint x="60" y="140" as="targetPoint"/>
                    </mxGeometry>
                </mxCell>
                <mxCell id="sOJSabOVQT56hFo2GRAl-1" value="precauciones" style="ellipse;whiteSpace=wrap;html=1;" parent="1" vertex="1">
                    <mxGeometry x="-600" y="435" width="80" height="50" as="geometry"/>
                </mxCell>
                <mxCell id="sOJSabOVQT56hFo2GRAl-3" value="" style="endArrow=none;html=1;rounded=0;entryX=1;entryY=0.5;entryDx=0;entryDy=0;exitX=0;exitY=0.5;exitDx=0;exitDy=0;" parent="1" source="NIFG1Vfks2P-AFJQT_E5-18" target="sOJSabOVQT56hFo2GRAl-1" edge="1">
                    <mxGeometry width="50" height="50" relative="1" as="geometry">
                        <mxPoint x="-430" y="540" as="sourcePoint"/>
                        <mxPoint x="-380" y="490" as="targetPoint"/>
                    </mxGeometry>
                </mxCell>
                <mxCell id="sOJSabOVQT56hFo2GRAl-4" value="comentario" style="ellipse;whiteSpace=wrap;html=1;" parent="1" vertex="1">
                    <mxGeometry x="202.5" y="495" width="70" height="40" as="geometry"/>
                </mxCell>
                <mxCell id="sOJSabOVQT56hFo2GRAl-5" value="" style="endArrow=none;html=1;rounded=0;entryX=0.992;entryY=0.867;entryDx=0;entryDy=0;entryPerimeter=0;exitX=0;exitY=0.5;exitDx=0;exitDy=0;" parent="1" source="sOJSabOVQT56hFo2GRAl-4" target="NIFG1Vfks2P-AFJQT_E5-35" edge="1">
                    <mxGeometry width="50" height="50" relative="1" as="geometry">
                        <mxPoint x="180" y="590" as="sourcePoint"/>
                        <mxPoint x="230" y="540" as="targetPoint"/>
                    </mxGeometry>
                </mxCell>
                <mxCell id="sOJSabOVQT56hFo2GRAl-6" value="intensidad_final" style="ellipse;whiteSpace=wrap;html=1;" parent="1" vertex="1">
                    <mxGeometry x="-50" y="510" width="85" height="40" as="geometry"/>
                </mxCell>
                <mxCell id="sOJSabOVQT56hFo2GRAl-9" value="" style="endArrow=none;html=1;rounded=0;entryX=0.578;entryY=0.032;entryDx=0;entryDy=0;entryPerimeter=0;exitX=0;exitY=0.75;exitDx=0;exitDy=0;" parent="1" source="NIFG1Vfks2P-AFJQT_E5-35" target="sOJSabOVQT56hFo2GRAl-6" edge="1">
                    <mxGeometry width="50" height="50" relative="1" as="geometry">
                        <mxPoint x="20" y="600" as="sourcePoint"/>
                        <mxPoint x="70" y="550" as="targetPoint"/>
                    </mxGeometry>
                </mxCell>
                <mxCell id="joS4DIwd-KzTDKTLnkV_-1" value="número_celular" style="ellipse;whiteSpace=wrap;html=1;" parent="1" vertex="1">
                    <mxGeometry x="340" y="80" width="90" height="40" as="geometry"/>
                </mxCell>
                <mxCell id="joS4DIwd-KzTDKTLnkV_-2" value="" style="endArrow=none;html=1;rounded=0;entryX=0;entryY=0.5;entryDx=0;entryDy=0;exitX=1;exitY=0.5;exitDx=0;exitDy=0;" parent="1" source="BtsOsqSpoS8FUeU52O5m-1" target="joS4DIwd-KzTDKTLnkV_-1" edge="1">
                    <mxGeometry width="50" height="50" relative="1" as="geometry">
                        <mxPoint x="220" y="230" as="sourcePoint"/>
                        <mxPoint x="270" y="180" as="targetPoint"/>
                    </mxGeometry>
                </mxCell>
            </root>
        </mxGraphModel>
    </diagram>
</mxfile>